PathFileType	4	(X/Y/Z)	/Users/itak/Documents/Research/Walk-IL/dataset/trc/00311_00010.trc
DataRate	CameraRate	NumFrames	NumMarkers	Units	OrigDataRate	OrigDataStartFrame	OrigNumFrames
100.000000	100.000000	4	53	mm	100.000000	157	629
Frame#	Time	RPSI			LPSI			L3			STRN			T10			C7			CLAV			RBAK			LBAK			LSHO			LUPA			LAEL			LAOL			LWTS			LWPS			LFRA			LIFD			LHPS			LHTS			RSHO			RUPA			RAEL			RAOL			RWTS			RWPS			RFRA			RIFD			RHTS			RHPS			RBHD			LFHD			RFHD			LBHD			LHIP			RHIP			RASI			LASI			LKNE			LTHI			LANK			LTIP			LTOE			LMT1			LMT5			LHEE			RKNE			RTHI			RANK			RTIP			RTOE			RMT1			RMT5			RHEE			
		X1	Y1	Z1	X2	Y2	Z2	X3	Y3	Z3	X4	Y4	Z4	X5	Y5	Z5	X6	Y6	Z6	X7	Y7	Z7	X8	Y8	Z8	X9	Y9	Z9	X10	Y10	Z10	X11	Y11	Z11	X12	Y12	Z12	X13	Y13	Z13	X14	Y14	Z14	X15	Y15	Z15	X16	Y16	Z16	X17	Y17	Z17	X18	Y18	Z18	X19	Y19	Z19	X20	Y20	Z20	X21	Y21	Z21	X22	Y22	Z22	X23	Y23	Z23	X24	Y24	Z24	X25	Y25	Z25	X26	Y26	Z26	X27	Y27	Z27	X28	Y28	Z28	X29	Y29	Z29	X30	Y30	Z30	X31	Y31	Z31	X32	Y32	Z32	X33	Y33	Z33	X34	Y34	Z34	X35	Y35	Z35	X36	Y36	Z36	X37	Y37	Z37	X38	Y38	Z38	X39	Y39	Z39	X40	Y40	Z40	X41	Y41	Z41	X42	Y42	Z42	X43	Y43	Z43	X44	Y44	Z44	X45	Y45	Z45	X46	Y46	Z46	X47	Y47	Z47	X48	Y48	Z48	X49	Y49	Z49	X50	Y50	Z50	X51	Y51	Z51	X52	Y52	Z52	X53	Y53	Z53	

158	1.57	-1169.208984375	1012.4091796875	-680.8128051757812	-1166.94091796875	1000.870788574219	-855.1246337890625	-1149.728515625	1072.639892578125	-771.5034790039062	-906.279541015625	1252.895141601562	-784.19677734375	-1166.634033203125	1183.681396484375	-775.168701171875	-1131.270629882812	1428.85888671875	-800.078857421875	-969.6146240234375	1353.684326171875	-791.1333618164062	-1178.155517578125	1293.3544921875	-716.3271484375	-1144.631591796875	1389.0986328125	-903.9961547851562	-1053.544189453125	1397.62744140625	-958.0631713867188	-1078.8212890625	1276.650512695312	-1027.308471679688	-1069.35009765625	1071.458862304688	-1033.969970703125	-1130.885986328125	1060.671630859375	-973.0003051757812	-990.49658203125	851.6422729492188	-972.7797241210938	-1022.927368164062	837.1708984375	-1036.915405273438	-1054.060791015625	966.5899658203125	-1037.888549804688	-985.1875610351562	665.84228515625	-971.79541015625	-1017.680053710938	748.8528442382812	-1030.992309570312	-946.5849609375	764.3798217773438	-995.9695434570312	-1061.3837890625	1414.682495117188	-639.72265625	-1063.64501953125	1357.721801757812	-569.8232421875	-1042.213134765625	1089.060791015625	-517.7379760742188	-1091.7890625	1080.104125976562	-598.7640991210938	-946.3140258789062	868.68994140625	-593.970458984375	-970.5205078125	862.0042724609375	-512.8751831054688	-1012.320251464844	1022.713623046875	-512.3365478515625	-934.0021362304688	682.8965454101562	-597.6954345703125	-909.3875122070312	753.8137817382812	-585.2371826171875	-943.5038452148438	751.6431274414062	-523.25634765625	-1110.16748046875	1591.569580078125	-731.4856567382812	-929.6061401367188	1631.147705078125	-837.095947265625	-937.64599609375	1627.495849609375	-744.5560913085938	-1096.663208007812	1587.55859375	-876.776123046875	-1099.547241210938	949.4749755859375	-949.2368774414062	-1068.415161132812	961.5197143554688	-576.3641357421875	-949.3709106445312	962.4088134765625	-646.9951171875	-961.3275146484375	954.2926025390625	-898.5878295898438	-1063.821533203125	484.0094299316406	-907.9989013671875	-1059.599487304688	625.758056640625	-932.5150756835938	-1155.466796875	47.74479675292969	-885.5228271484375	-1117.376220703125	261.9382934570312	-906.8358764648438	-947.2620239257812	38.75107574462891	-827.660400390625	-1016.937072753906	32.02604675292969	-786.2810668945312	-1032.497680664062	41.95600891113281	-898.8538818359375	-1200.936279296875	43.29762649536133	-824.9993286132812	-1065.509155273438	487.1708679199219	-589.8359375	-1000.748291015625	752.968994140625	-573.2572021484375	-1137.08154296875	46.64008331298828	-590.3863525390625	-1064.619140625	366.2727966308594	-594.5697631835938	-942.9744873046875	44.50798797607422	-650.9733276367188	-1003.773498535156	39.5597038269043	-686.6573486328125	-1030.859985351562	38.90847015380859	-572.2398681640625	-1190.546142578125	37.6920166015625	-636.5675048828125	
159	1.58	-1168.795166015625	1012.466552734375	-681.4259643554688	-1166.681518554688	1000.87890625	-855.7720336914062	-1149.368041992188	1072.607543945312	-772.1865234375	-905.916259765625	1252.738647460938	-784.9536743164062	-1166.248657226562	1183.585815429688	-775.8995361328125	-1130.883056640625	1428.748168945312	-800.9196166992188	-969.2273559570312	1353.537231445312	-791.9276733398438	-1177.711791992188	1293.267456054688	-717.1236572265625	-1144.170288085938	1388.941528320312	-904.81201171875	-1053.165771484375	1397.41650390625	-958.8897705078125	-1078.390625	1276.411010742188	-1028.065063476562	-1068.98583984375	1071.220092773438	-1034.668701171875	-1130.495727539062	1060.474975585938	-973.7098388671875	-990.3386840820312	851.3142700195312	-973.4207153320312	-1022.664855957031	836.8987426757812	-1037.53369140625	-1053.749389648438	966.3457641601562	-1038.562744140625	-985.0347900390625	665.5699462890625	-972.3665771484375	-1017.461730957031	748.5828247070312	-1031.621704101562	-946.3575439453125	764.128173828125	-996.6468505859375	-1060.983764648438	1414.62548828125	-640.5446166992188	-1063.2763671875	1357.645263671875	-570.6480712890625	-1042.055541992188	1089.025756835938	-518.5121459960938	-1091.43896484375	1080.05810546875	-599.5553588867188	-946.0012817382812	868.7247314453125	-594.5881958007812	-970.2573852539062	862.0088500976562	-513.5260009765625	-1012.025573730469	1022.701110839844	-513.0274658203125	-933.4539794921875	682.9577026367188	-598.2532958984375	-909.1021118164062	753.830322265625	-585.814697265625	-943.1010131835938	751.6461791992188	-523.828125	-1109.983276367188	1591.456909179688	-732.43798828125	-929.2699584960938	1631.068237304688	-837.873046875	-937.3817138671875	1627.428588867188	-745.3634033203125	-1096.27197265625	1587.441528320312	-877.658447265625	-1099.284423828125	949.4246215820312	-949.88037109375	-1068.063598632812	961.5104370117188	-577.0034790039062	-949.0634155273438	962.2798461914062	-647.6619262695312	-961.1038818359375	954.0859985351562	-899.2105712890625	-1064.035766601562	483.9638366699219	-908.354248046875	-1059.642944335938	625.691162109375	-932.980224609375	-1155.505737304688	47.72453308105469	-885.5597534179688	-1117.394287109375	261.8324584960938	-907.0337524414062	-947.3233642578125	38.73904800415039	-827.6401977539062	-1016.9501953125	32.03168487548828	-786.2741088867188	-1032.515258789062	41.95143127441406	-898.8566284179688	-1200.9619140625	43.30300140380859	-825.018798828125	-1065.511840820312	487.1810913085938	-590.2000122070312	-999.9776000976562	753.06640625	-573.8853759765625	-1137.09814453125	46.67841339111328	-590.4202270507812	-1064.53173828125	366.2775268554688	-594.7966918945312	-943.0047607421875	44.55280685424805	-650.8951416015625	-1003.77880859375	39.54622650146484	-686.67822265625	-1030.84375	38.941650390625	-572.271484375	-1190.569702148438	37.70204162597656	-636.5993041992188	
160	1.59	-1168.391845703125	1012.511779785156	-682.0468139648438	-1166.399658203125	1000.882141113281	-856.4212646484375	-1149.01416015625	1072.5830078125	-772.8768920898438	-905.5105590820312	1252.572387695312	-785.7293090820312	-1165.844116210938	1183.502685546875	-776.633544921875	-1130.456420898438	1428.646362304688	-801.7666015625	-968.8123168945312	1353.382080078125	-792.7374267578125	-1177.260864257812	1293.198608398438	-717.929931640625	-1143.694458007812	1388.792236328125	-905.6373901367188	-1052.746826171875	1397.212890625	-959.721923828125	-1077.946411132812	1276.171142578125	-1028.82861328125	-1068.564331054688	1070.989990234375	-1035.3779296875	-1130.107299804688	1060.276000976562	-974.440185546875	-990.1795043945312	850.97900390625	-974.0957641601562	-1022.391784667969	836.6456298828125	-1038.187622070312	-1053.397827148438	966.1149291992188	-1039.252807617188	-984.8480834960938	665.2969970703125	-972.99072265625	-1017.203002929688	748.3175659179688	-1032.28564453125	-946.0753784179688	763.89111328125	-997.3448486328125	-1060.56298828125	1414.572875976562	-641.3842163085938	-1062.873168945312	1357.5751953125	-571.4833374023438	-1041.876098632812	1089.001342773438	-519.2749633789062	-1091.089111328125	1080.021850585938	-600.3429565429688	-945.6689453125	868.7891845703125	-595.2171630859375	-970.0214233398438	862.0262451171875	-514.1771850585938	-1011.721069335938	1022.698486328125	-513.712158203125	-932.8909912109375	683.0068969726562	-598.8240966796875	-908.7918701171875	753.8641357421875	-586.40185546875	-942.7164306640625	751.6626586914062	-524.392333984375	-1109.751708984375	1591.34716796875	-733.3817749023438	-928.9240112304688	1631.021484375	-838.6586303710938	-937.0994262695312	1627.359985351562	-746.1767578125	-1095.843139648438	1587.330810546875	-878.5528564453125	-1099.021118164062	949.367431640625	-950.5364379882812	-1067.738647460938	961.50390625	-577.661376953125	-948.7568969726562	962.1838989257812	-648.3391723632812	-960.8701171875	953.8970336914062	-899.8544311523438	-1064.189575195312	483.9150695800781	-908.7215576171875	-1059.6318359375	625.6237182617188	-933.4461059570312	-1155.540405273438	47.70432281494141	-885.5944213867188	-1117.385375976562	261.7289428710938	-907.2338256835938	-947.3836669921875	38.7266960144043	-827.6231079101562	-1016.963623046875	32.04099273681641	-786.2678833007812	-1032.5361328125	41.94615173339844	-898.8601684570312	-1200.984130859375	43.31065368652344	-825.0355834960938	-1065.435913085938	487.2008972167969	-590.5805053710938	-999.207763671875	753.19677734375	-574.5241088867188	-1137.111450195312	46.72328186035156	-590.45458984375	-1064.361450195312	366.2652587890625	-595.0671997070312	-943.0410766601562	44.61101531982422	-650.7635498046875	-1003.784423828125	39.53141021728516	-686.701416015625	-1030.82373046875	38.97348403930664	-572.3057250976562	-1190.585205078125	37.7155876159668	-636.6304931640625	
161	1.6	-1168.0029296875	1012.544677734375	-682.6774291992188	-1166.092651367188	1000.880554199219	-857.0719604492188	-1148.661499023438	1072.565307617188	-773.5735473632812	-905.0767211914062	1252.392822265625	-786.516357421875	-1165.42919921875	1183.431030273438	-777.3734130859375	-1129.989990234375	1428.555786132812	-802.61962890625	-968.3718872070312	1353.219116210938	-793.5623779296875	-1176.803833007812	1293.14892578125	-718.7461547851562	-1143.206420898438	1388.65283203125	-906.4718017578125	-1052.286010742188	1397.019409179688	-960.5587768554688	-1077.493530273438	1275.9345703125	-1029.599609375	-1068.094482421875	1070.7705078125	-1036.09912109375	-1129.724365234375	1060.079345703125	-975.1890869140625	-989.9796142578125	850.6627197265625	-974.7999877929688	-1022.102233886719	836.411376953125	-1038.87646484375	-1053.0068359375	965.8997192382812	-1039.957641601562	-984.6344604492188	665.0318603515625	-973.6683349609375	-1016.90380859375	748.0606079101562	-1032.9794921875	-945.7536010742188	763.6754150390625	-998.0545654296875	-1060.12109375	1414.524536132812	-642.2415771484375	-1062.443359375	1357.512817382812	-572.3310546875	-1041.667358398438	1088.990112304688	-520.0238037109375	-1090.745361328125	1079.995239257812	-601.1249389648438	-945.3265380859375	868.867919921875	-595.8552856445312	-969.7959594726562	862.052001953125	-514.8220825195312	-1011.415649414062	1022.704895019531	-514.3906860351562	-932.34423828125	683.0377197265625	-599.4076538085938	-908.4617919921875	753.9117431640625	-586.9982299804688	-942.359619140625	751.6912841796875	-524.9592895507812	-1109.457153320312	1591.237426757812	-734.3121948242188	-928.5614013671875	1631.007690429688	-839.4522094726562	-936.7965698242188	1627.295166015625	-746.99267578125	-1095.382934570312	1587.22998046875	-879.4609375	-1098.763793945312	949.3040771484375	-951.2046508789062	-1067.438720703125	961.5010986328125	-578.3377075195312	-948.4441528320312	962.1263427734375	-649.030517578125	-960.63134765625	953.7229614257812	-900.5330200195312	-1064.269897460938	483.8605651855469	-909.0987548828125	-1059.559448242188	625.5518188476562	-933.9127807617188	-1155.566284179688	47.68292617797852	-885.6253051757812	-1117.361938476562	261.6355590820312	-907.4352416992188	-947.4410400390625	38.71450042724609	-827.6089477539062	-1016.976013183594	32.05184173583984	-786.2637939453125	-1032.55712890625	41.93889999389648	-898.8648681640625	-1201.002685546875	43.3202018737793	-825.0492553710938	-1065.279296875	487.2293090820312	-590.9757080078125	-998.4313354492188	753.3658447265625	-575.177001953125	-1137.121459960938	46.77510452270508	-590.490234375	-1064.1279296875	366.23779296875	-595.3796997070312	-943.0791015625	44.67979049682617	-650.5732421875	-1003.7890625	39.51407623291016	-686.7268676757812	-1030.799072265625	39.00372695922852	-572.3424682617188	-1190.59521484375	37.73518371582031	-636.6630249023438	
